<?xml version="1.0" encoding="utf-8"?>
<!-- Generator: Adobe Illustrator 17.1.0, SVG Export Plug-In . SVG Version: 6.00 Build 0)  -->
<!DOCTYPE svg PUBLIC "-//W3C//DTD SVG 1.1//EN" "http://www.w3.org/Graphics/SVG/1.1/DTD/svg11.dtd">
<svg version="1.1" id="Layer_1" xmlns="http://www.w3.org/2000/svg" xmlns:xlink="http://www.w3.org/1999/xlink" x="0px" y="0px"
	 viewBox="0 0 71.9 71.9" enable-background="new 0 0 71.9 71.9" xml:space="preserve">
<path d="M71.2,57.7l-15.8-9.3c-0.8-0.4-2-0.2-2.7,0.4l-4.7,4.7c-0.7,0.7-1.9,1.2-2.9,1.2c0,0-5.9,0.1-17-11c-11.1-11-11-17-11-17
	c0-0.9,0.5-2.2,1.2-2.9l4-4c0.7-0.7,0.9-1.9,0.5-2.7L14.2,0.7c-0.4-0.8-1.2-1-1.9-0.3L1.5,11.2c-0.7,0.6-1.3,1.9-1.4,2.8
	c0,0-2.1,15.8,20,37.8c22.1,22.1,37.8,20,37.8,20c0.9-0.1,2.2-0.8,2.8-1.4l10.8-10.8C72.2,59,72,58.1,71.2,57.7z"/>
</svg>
