<?xml version="1.0" encoding="utf-8"?>
<!-- Generator: Adobe Illustrator 17.1.0, SVG Export Plug-In . SVG Version: 6.00 Build 0)  -->
<!DOCTYPE svg PUBLIC "-//W3C//DTD SVG 1.1//EN" "http://www.w3.org/Graphics/SVG/1.1/DTD/svg11.dtd">
<svg version="1.1" id="Layer_1" xmlns="http://www.w3.org/2000/svg" xmlns:xlink="http://www.w3.org/1999/xlink" x="0px" y="0px"
	 viewBox="0 0 72 72.1" enable-background="new 0 0 72 72.1" xml:space="preserve">
<g>
	<path d="M72,60.9L50.8,39.7c2-3.8,3.2-8.1,3.2-12.7C54,12.1,41.9,0,27,0S0,12.1,0,27c0,14.9,12.1,27,27,27c4.5,0,8.8-1.1,12.6-3.1
		l21.3,21.3L72,60.9z M9,27c0-9.9,8.1-18,18-18c9.9,0,18,8.1,18,18c0,9.9-8.1,18-18,18C17.1,45,9,36.9,9,27z"/>
</g>
</svg>
