<svg xmlns="http://www.w3.org/2000/svg">
	<defs>

    </defs>

	<symbol id="Icon--check" viewBox="0 0 72 53">
		<path d="M0.8,32.6c-1.1-1.1-1.1-3,0-4.1L8,21.3c1.1-1.1,3-1.1,4.1,0L23.8,33c1.1,1.1,3,1.1,4.1,0l32-32.1c1.1-1.1,3-1.1,4.1,0
			l7.2,7.1c1.1,1.1,1.1,2.9,0,4.1L32.3,51c-1.1,1.1-3.3,2-4.9,2H24c-1.6,0-3.8-0.9-4.9-2L0.8,32.6z"/>
	</symbol>

	<symbol id="Icon--check--pink" viewBox="0 0 72 53">
		<path d="M0.8,32.6c-1.1-1.1-1.1-3,0-4.1L8,21.3c1.1-1.1,3-1.1,4.1,0L23.8,33c1.1,1.1,3,1.1,4.1,0l32-32.1c1.1-1.1,3-1.1,4.1,0
			l7.2,7.1c1.1,1.1,1.1,2.9,0,4.1L32.3,51c-1.1,1.1-3.3,2-4.9,2H24c-1.6,0-3.8-0.9-4.9-2L0.8,32.6z" fill="#f58f9c" />
	</symbol>
	      
	<symbol id="Icon--magnifier" viewBox="0 0 72 72.1">
		<path d="M72,60.9L50.8,39.7c2-3.8,3.2-8.1,3.2-12.7C54,12.1,41.9,0,27,0S0,12.1,0,27c0,14.9,12.1,27,27,27c4.5,0,8.8-1.1,12.6-3.1
		l21.3,21.3L72,60.9z M9,27c0-9.9,8.1-18,18-18c9.9,0,18,8.1,18,18c0,9.9-8.1,18-18,18C17.1,45,9,36.9,9,27z"/>
	</symbol>

	<symbol id="Icon--phone" viewBox="0 0 72 72.1">
		<path d="M71.2,57.7l-15.8-9.3c-0.8-0.4-2-0.2-2.7,0.4l-4.7,4.7c-0.7,0.7-1.9,1.2-2.9,1.2c0,0-5.9,0.1-17-11c-11.1-11-11-17-11-17
		c0-0.9,0.5-2.2,1.2-2.9l4-4c0.7-0.7,0.9-1.9,0.5-2.7L14.2,0.7c-0.4-0.8-1.2-1-1.9-0.3L1.5,11.2c-0.7,0.6-1.3,1.9-1.4,2.8
		c0,0-2.1,15.8,20,37.8c22.1,22.1,37.8,20,37.8,20c0.9-0.1,2.2-0.8,2.8-1.4l10.8-10.8C72.2,59,72,58.1,71.2,57.7z"/>
	</symbol>

	<symbol id="Icon--caretUp" viewBox="0 0 16 16">
		<path d="M5.265 9.919c-0.217 0.214-0.566 0.214-0.783 0-0.216-0.214-0.217-0.561 0-0.776l3.126-3.062c0.217-0.214 0.567-0.214 0.783 0l3.126 3.063c0.217 0.215 0.217 0.562 0 0.776s-0.566 0.214-0.783 0l-2.735-2.513-2.734 2.512z"></path>
	</symbol>

	<symbol id="Icon--caretDown" viewBox="0 0 16 16">
		<path d="M10.734 6.081c0.217-0.214 0.567-0.214 0.783 0 0.217 0.214 0.217 0.561 0 0.775l-3.126 3.064c-0.217 0.214-0.567 0.214-0.783 0l-3.126-3.064c-0.216-0.214-0.216-0.561 0-0.775 0.217-0.214 0.566-0.214 0.783 0l2.734 2.512 2.734-2.512z"></path>
	</symbol>

	<symbol id="Icon--arrowUp" viewBox="251.5 560.7 612 376.6">
		<path fill="#94a0ab" d="M557.5,560.7l306,376.6h-612L557.5,560.7z"/>
	</symbol>

	<symbol id="Icon--arrowDown" viewBox="251.5 560.7 612 376.6">
		<path fill="#94a0ab" d="M557.5,937.3l-306-376.6h612L557.5,937.3z"/>
	</symbol>

	<symbol id="Icon--filter" viewBox="0 0 100 100">
		<path d="M54.932,3.03C30.881,1.587,7.793,6.768,3.373,14.587c-0.975,1.723-0.975,3.484,0,5.207l31.311,39.072
		c1.333,1.658,2.054,3.725,2.054,5.85v29.156c0,1.293,1.053,2.34,2.34,2.34c0.461,0,0.917-0.137,1.3-0.397l14.651-6.763
		c1.3-0.871,2.08-2.333,2.08-3.894V64.715c0-2.125,0.728-4.191,2.054-5.85L90.48,19.793C94.9,11.974,78.988,4.467,54.932,3.03z
		 M46.923,26.125c-23.277,0-38.57-5.376-38.57-9.23c0-3.852,15.293-10.224,38.57-10.224c23.282,0,38.577,6.372,38.577,10.224
		C85.5,20.749,70.205,26.125,46.923,26.125z"/>
	</symbol>

	<symbol id="Icon--close" viewBox="0 0 104.2 104.2">
		<path fill-rule="evenodd" clip-rule="evenodd" d="M104.2,23l-23-23L52.1,29.1L23,0L0,23l29.1,29.1L0,81.2l23,23L52.1,75
		l29.1,29.1l23-23L75,52.1L104.2,23z"/>
	</symbol>

</svg>
