<?xml version="1.0" encoding="utf-8"?>
<!-- Generator: Adobe Illustrator 17.1.0, SVG Export Plug-In . SVG Version: 6.00 Build 0)  -->
<!DOCTYPE svg PUBLIC "-//W3C//DTD SVG 1.1//EN" "http://www.w3.org/Graphics/SVG/1.1/DTD/svg11.dtd">
<svg version="1.1" id="_x30_1" xmlns="http://www.w3.org/2000/svg" xmlns:xlink="http://www.w3.org/1999/xlink" x="0px" y="0px"
	 viewBox="92.2 329.4 380.3 75.5" enable-background="new 92.2 329.4 380.3 75.5" xml:space="preserve">
<g>
	<path fill="#FFFFFF" d="M163.7,337.3h5.6v24.5l31.4-24.5h8.5l-22.5,17.3l25.8,28.7H205L182.3,358l-13.1,10.2v15.1h-5.6L163.7,337.3
		L163.7,337.3z"/>
	<path fill="#FFFFFF" d="M248.2,376.4c-3.4,3.6-6.7,7.9-18,7.9c-11.1,0-18.7-7.6-18.7-17.7c0-10.5,7.9-17.4,18.1-17.4
		c10.6,0,19.8,5.5,19.5,18.6h-32.5c0.5,6.2,5.5,12.1,14.1,12.1c8.5,0,11.4-3.9,13.5-6.5L248.2,376.4z M243.6,363.4
		c-1-5.4-5.7-9.9-13.5-9.9c-7.5,0-11.8,3.8-13.2,9.9H243.6z"/>
	<path fill="#FFFFFF" d="M251,389.2c1.6,0.8,4.2,1,5.9,1c3.9,0,6.5-1.9,9.5-8.2l-17-31.8h5.6l14.2,26.7l13.5-26.7h5.6l-19.4,37.3
		c-2.1,4-5.6,7.4-11.6,7.4c-2.2,0-4.2-0.4-6.3-1L251,389.2L251,389.2z"/>
	<path fill="#FFFFFF" d="M292.7,373c3.2,4,8,7,15,7c5.4,0,10.4-1.7,10.4-5.6c0-9.4-27.5-1.4-27.5-15.1c0-7.5,7.7-10.1,14.7-10.1
		c11.1,0,15.2,4.7,16.9,7.1l-3.5,3.2c-2.7-3.5-7-5.9-13.5-5.9c-6.1,0-9.5,1.9-9.5,5.4c0,8.5,27.5,0.8,27.5,15
		c0,7.6-7.5,10.4-15.9,10.4c-7.3,0-13.4-2.1-18.3-7.8L292.7,373z"/>
	<path fill="#FFFFFF" d="M350.6,354.6h-13.2v20c0,3.6,1.6,5.4,6.8,5.4c2.5,0,4.5-0.4,7.3-1v4.4c-3.7,0.6-6.3,0.9-8.3,0.9
		c-10.8,0-10.8-6.6-10.8-9.2v-20.5h-7v-4.4h7v-11h5.1v11h13.2V354.6z"/>
	<path fill="#FFFFFF" d="M353.4,366.1c0-9.4,7.5-17,19.1-17c11.6,0,19,7.5,19,17c0,11.7-7.8,18.2-19,18.2
		C361.3,384.3,353.4,377.8,353.4,366.1z M386.5,366.8c0-6-3.9-13.2-13.9-13.2c-10,0-14,7.2-14,13.2c0,7.9,5.3,13.2,14,13.2
		C381.2,379.9,386.5,374.7,386.5,366.8z"/>
	<path fill="#FFFFFF" d="M397.1,350.2h5.1v4.8c3.5-3,8-5.8,13.9-5.8c4.1,0,13.7,0.9,13.7,12.3v21.8h-5.1v-20.8
		c0.1-7.8-5.6-8.9-9.2-8.9c-5.6,0-10.3,3.5-13.3,6.6v23.1h-5.1L397.1,350.2L397.1,350.2z"/>
	<path fill="#FFFFFF" d="M472,376.4c-3.4,3.6-6.7,7.9-18,7.9c-11.1,0-18.7-7.6-18.7-17.7c0-10.5,7.9-17.4,18.1-17.4
		c10.6,0,19.8,5.5,19.5,18.6h-32.5c0.5,6.2,5.5,12.1,14.1,12.1c8.5,0,11.4-3.9,13.5-6.5L472,376.4z M467.4,363.4
		c-1-5.4-5.7-9.9-13.5-9.9c-7.5,0-11.8,3.8-13.2,9.9H467.4z"/>
</g>
<g>
	<path fill="#FFFFFF" d="M116.5,330.1c-13.9,3.1-24.3,15.5-24.3,30.3c0,3.8,0.7,7.5,2,10.9c1.6-4.7,4.5-12.1,10.1-23.3
		C107.8,340.9,112.1,335,116.5,330.1z"/>
	<path fill="#FFFFFF" d="M118.8,363.2c0.6-2,1.3-3.8,2.2-5.6c-10.1,7.4-19.7,18.2-22.5,21.5c5.6,7.3,14.3,12.1,24.2,12.2
		C118.4,384.1,115.6,374.6,118.8,363.2z"/>
	<path fill="#FFFFFF" d="M109.6,350.6c-3.2,6.3-5.4,11.4-7.1,15.4c4.5-4.6,10.3-9.9,16.2-14l0.6-0.4c9.9-6.9,12-8.4,21.5-12.7
		c1.1-0.6,2.1-1.1,3.1-1.5c-5-4.5-11.4-7.4-18.5-7.9C120,334.7,114,341.8,109.6,350.6z"/>
	<path fill="#FFFFFF" d="M154.2,360.3c0-6.8-2.2-13.1-5.9-18.3c-1.6,0.7-3,1.3-4.3,1.9c-6.6,3.5-16.4,10.2-19.4,20.9
		c-3,10.7,0.3,19.5,4.7,25.9C143.5,387.9,154.2,375.4,154.2,360.3z"/>
</g>
<g>
	<path fill="#FFFFFF" d="M371.6,391.6h6.4c4.2,0,7.5,1.8,7.5,6.5c0,4.5-3.1,6.7-7.4,6.7h-6.5L371.6,391.6L371.6,391.6z M376.8,402.6
		c4.4,0,6.1-1.3,6.1-4.4c0-3.2-1.8-4.4-6.1-4.4h-2.6v8.8H376.8z"/>
	<path fill="#FFFFFF" d="M390.4,391.6h11.9v2.2H393v3.1h8v2.2h-8v3.5h9.5v2.2h-12.1V391.6z"/>
	<path fill="#FFFFFF" d="M407.5,391.6h2.7l8.9,9.6v-9.6h2.5v13.3h-2.4l-9.2-9.9v9.9h-2.5V391.6z"/>
	<path fill="#FFFFFF" d="M431.6,393.8h-5.9v-2.2h14.4v2.2h-5.9v11h-2.6V393.8z"/>
	<path fill="#FFFFFF" d="M446.6,391.6h3l6.4,13.3h-2.7l-1.4-3h-7.6l-1.4,3h-2.8L446.6,391.6z M450.9,399.6l-2.8-5.9l-2.8,5.9H450.9z
		"/>
	<path fill="#FFFFFF" d="M460.3,391.6h2.6v11h9.6v2.3h-12.2V391.6z"/>
</g>
</svg>
